<svg id="Layer_1" data-name="Layer 1" xmlns="http://www.w3.org/2000/svg" xmlns:xlink="http://www.w3.org/1999/xlink" viewBox="0 0 1366 3754"><defs><style>.cls-1,.cls-8,.cls-9{fill:none;}.cls-2{fill:url(#linear-gradient);}.cls-3{opacity:0.6;}.cls-4{clip-path:url(#clip-path);}.cls-10,.cls-5,.cls-6,.cls-7{fill:#fff;}.cls-6,.cls-9{opacity:0.85;}.cls-10,.cls-7,.cls-8,.cls-9{stroke:#fff;stroke-miterlimit:10;}.cls-10,.cls-8,.cls-9{stroke-width:4px;}</style><linearGradient id="linear-gradient" x1="-1882.76" y1="383.29" x2="1070.24" y2="383.29" gradientTransform="translate(299 1067) rotate(-90)" gradientUnits="userSpaceOnUse"><stop offset="0" stop-color="#fff"/><stop offset="0.19" stop-color="#b1b0b0"/><stop offset="0.37" stop-color="#6a6868"/><stop offset="0.5" stop-color="#3f3c3c"/><stop offset="0.57" stop-color="#2e2b2b"/><stop offset="0.59" stop-color="#252323"/><stop offset="0.64" stop-color="#141313"/><stop offset="0.69" stop-color="#090808"/><stop offset="0.77" stop-color="#020202"/><stop offset="1"/></linearGradient><clipPath id="clip-path"><rect class="cls-1" x="-0.71" y="-4.24" width="1373" height="2349"/></clipPath></defs><rect class="cls-2" x="-0.71" y="-3.24" width="1366" height="2953"/><g class="cls-3"><g class="cls-4"><circle class="cls-5" cx="22.8" cy="37.24" r="7.6"/><circle class="cls-5" cx="-2.3" cy="559.92" r="5.98"/><circle class="cls-5" cx="53.49" cy="590.6" r="5.98"/><circle class="cls-5" cx="59.95" cy="756.41" r="5.98"/><circle class="cls-5" cx="46.06" cy="890.19" r="7.02"/><circle class="cls-5" cx="210.04" cy="893.31" r="7.02"/><circle class="cls-5" cx="23.11" cy="854.75" r="7.02"/><circle class="cls-5" cx="182.88" cy="475.4" r="5.98"/><circle class="cls-5" cx="73.17" cy="99.46" r="5.98"/><circle class="cls-5" cx="117.17" cy="163.46" r="5.98"/><circle class="cls-5" cx="194.38" cy="683.39" r="5.75"/><circle class="cls-5" cx="210.23" cy="617.08" r="5.75"/><circle class="cls-5" cx="999.96" cy="6.02" r="5.98"/><circle class="cls-6" cx="8.44" cy="275.41" r="5.75"/><circle class="cls-6" cx="991.29" cy="946.78" r="5.98"/><circle class="cls-6" cx="1080.28" cy="281.33" r="5.98"/><circle class="cls-5" cx="1136.43" cy="742.48" r="5.98"/><circle class="cls-5" cx="1291.48" cy="548.49" r="7.6"/><circle class="cls-5" cx="1250.34" cy="675.37" r="5.98"/><circle class="cls-5" cx="1257.19" cy="621.78" r="5.98"/><circle class="cls-5" cx="1213.35" cy="665.67" r="11.95"/><circle class="cls-5" cx="710.95" cy="176.39" r="7.6"/><circle class="cls-6" cx="879.35" cy="124.3" r="7.6"/><circle class="cls-5" cx="945.74" cy="163.44" r="7.6"/><circle class="cls-5" cx="1123.68" cy="82.41" r="7.6"/><circle class="cls-5" cx="1098.63" cy="141.25" r="4.89"/><circle class="cls-5" cx="1249.33" cy="118.32" r="4.89"/><circle class="cls-5" cx="1224.87" cy="184.66" r="4.89"/><circle class="cls-5" cx="1221.2" cy="264.71" r="4.89"/><circle class="cls-5" cx="1208.47" cy="247.23" r="4.89"/><circle class="cls-5" cx="1169.88" cy="285.48" r="8.15"/><circle class="cls-5" cx="248.44" cy="731.46" r="5.98"/><circle class="cls-5" cx="350.27" cy="873.82" r="7.02"/><circle class="cls-5" cx="231.46" cy="680.06" r="5.98"/><circle class="cls-5" cx="165.09" cy="601.09" r="8.15"/><circle class="cls-5" cx="69.09" cy="258.09" r="8.15"/><circle class="cls-5" cx="-7.14" cy="643.95" r="8.15"/><circle class="cls-5" cx="310.86" cy="104.95" r="8.15"/><circle class="cls-5" cx="116.06" cy="875.28" r="9.57"/><circle class="cls-5" cx="18.12" cy="986.71" r="9.57"/><circle class="cls-5" cx="173.04" cy="924.08" r="9.57"/><circle class="cls-5" cx="263.23" cy="1008.21" r="9.57"/><circle class="cls-5" cx="380.16" cy="742.98" r="7.02"/><circle class="cls-5" cx="664.93" cy="1427.16" r="7.02"/><circle class="cls-5" cx="147.96" cy="1003.53" r="7.02"/><circle class="cls-5" cx="29.78" cy="1006.26" r="5.98"/><circle class="cls-5" cx="192.72" cy="1579.14" r="5.98"/><circle class="cls-5" cx="166.21" cy="1197.94" r="5.98"/><circle class="cls-5" cx="319.66" cy="1579.64" r="5.98"/><circle class="cls-5" cx="258.32" cy="1514.13" r="5.98"/><circle class="cls-5" cx="304.89" cy="1509.89" r="5.98"/><circle class="cls-5" cx="166.69" cy="1347.83" r="8.15"/><circle class="cls-6" cx="593.95" cy="514.95" r="9.16"/><circle class="cls-5" cx="568.08" cy="1442.92" r="8.15"/><circle class="cls-5" cx="505.25" cy="537.19" r="6.37"/><circle class="cls-5" cx="548.91" cy="1336.59" r="5.67"/><circle class="cls-5" cx="528.88" cy="467.36" r="6.37"/><circle class="cls-6" cx="601.49" cy="448.69" r="6.37"/><circle class="cls-6" cx="401.1" cy="753.92" r="6.37"/><circle class="cls-6" cx="550.55" cy="410.13" r="6.37"/><circle class="cls-5" cx="513.02" cy="423.94" r="6.37"/><circle class="cls-5" cx="310.46" cy="1264.08" r="5.98"/><circle class="cls-5" cx="347.75" cy="1478.74" r="5.98"/><circle class="cls-5" cx="375.53" cy="1182.47" r="17.29"/><circle class="cls-5" cx="393.78" cy="1600.11" r="5.98"/><circle class="cls-5" cx="504.61" cy="1412.21" r="5.98"/><circle class="cls-5" cx="633.27" cy="1101.37" r="5.75"/><circle class="cls-5" cx="568.09" cy="1012.91" r="5.75"/><circle class="cls-5" cx="537.2" cy="915.94" r="5.75"/><circle class="cls-6" cx="531.13" cy="828.71" r="5.75"/><circle class="cls-6" cx="590.79" cy="768.84" r="5.75"/><circle class="cls-5" cx="739.19" cy="869.06" r="5.75"/><circle class="cls-5" cx="715.1" cy="954.52" r="5.75"/><circle class="cls-5" cx="548.65" cy="1235.29" r="5.98"/><circle class="cls-5" cx="603.58" cy="488.68" r="6.72"/><circle class="cls-5" cx="620.17" cy="1057.61" r="5.75"/><circle class="cls-5" cx="699.98" cy="1076.62" r="5.75"/><circle class="cls-5" cx="833.99" cy="1117.71" r="5.75"/><circle class="cls-5" cx="863.59" cy="1077.02" r="5.75"/><circle class="cls-5" cx="728.9" cy="1023.03" r="4.79"/><circle class="cls-5" cx="811.16" cy="1027.51" r="5.75"/><circle class="cls-5" cx="699.62" cy="1048.38" r="7.93"/><circle class="cls-5" cx="594.51" cy="1502.99" r="8.24"/><circle class="cls-5" cx="403.63" cy="1478.92" r="8.24"/><circle class="cls-5" cx="467.68" cy="1585.23" r="8.24"/><circle class="cls-5" cx="91.42" cy="1643.97" r="8.24"/><circle class="cls-7" cx="280.4" cy="1715.83" r="9.76"/><circle class="cls-7" cx="188.3" cy="1750.43" r="9.76"/><circle class="cls-7" cx="250.98" cy="1801.17" r="9.76"/><circle class="cls-7" cx="249.44" cy="1981.43" r="9.76"/><circle class="cls-7" cx="32.28" cy="2073.3" r="9.76"/><circle class="cls-7" cx="112.64" cy="2050.62" r="15.28"/><circle class="cls-7" cx="113.06" cy="1943.38" r="9.76"/><circle class="cls-7" cx="75.82" cy="2159.19" r="6.6"/><circle class="cls-7" cx="355.1" cy="1703.32" r="9.76"/><circle class="cls-5" cx="560.58" cy="1638.63" r="8.19"/><circle class="cls-5" cx="138.26" cy="1712.68" r="5.86"/><circle class="cls-7" cx="196.15" cy="1673.71" r="6.95"/><circle class="cls-7" cx="90.95" cy="2071.81" r="5.12"/><circle class="cls-7" cx="324.04" cy="1816.58" r="6.95"/><circle class="cls-7" cx="391.15" cy="1840.27" r="6.95"/><circle class="cls-7" cx="929.56" cy="1186.77" r="5.64"/><circle class="cls-5" cx="34.5" cy="1620.63" r="5.86"/><circle class="cls-5" cx="845.61" cy="1504.91" r="5.35"/><circle class="cls-5" cx="506.42" cy="1579.87" r="8.24"/><circle class="cls-5" cx="556.63" cy="1566.89" r="13.31"/><circle class="cls-5" cx="417.35" cy="1558.78" r="10.16"/><circle class="cls-5" cx="146.28" cy="658.93" r="5.98"/><circle class="cls-5" cx="175.71" cy="28.72" r="9.23"/><circle class="cls-5" cx="285.57" cy="520.26" r="8.89"/><circle class="cls-5" cx="313.3" cy="477.16" r="8.89"/><circle class="cls-5" cx="433.11" cy="565.43" r="8.89"/><circle class="cls-5" cx="445.57" cy="852.62" r="8.89"/><circle class="cls-5" cx="560.38" cy="736.84" r="10.98"/><circle class="cls-5" cx="534.16" cy="996.06" r="10.98"/><circle class="cls-5" cx="732.79" cy="847.75" r="10.98"/><circle class="cls-5" cx="763.86" cy="956.04" r="10.98"/><circle class="cls-7" cx="1109.42" cy="815.19" r="10.98"/><circle class="cls-7" cx="1154.64" cy="786.46" r="8.37"/><circle class="cls-7" cx="1059.33" cy="1131.81" r="8.37"/><circle class="cls-7" cx="1004.83" cy="1090.38" r="6.54"/><circle class="cls-7" cx="991.92" cy="975.12" r="6.54"/><circle class="cls-7" cx="1077.58" cy="979.23" r="6.54"/><circle class="cls-7" cx="1107.98" cy="979.82" r="5.75"/><circle class="cls-7" cx="971.97" cy="1050.12" r="5.75"/><circle class="cls-5" cx="905.57" cy="963.88" r="5.75"/><circle class="cls-7" cx="834.17" cy="1210.2" r="5.75"/><circle class="cls-7" cx="758.39" cy="1947.7" r="5.98"/><circle class="cls-7" cx="520.22" cy="2051.87" r="5.98"/><circle class="cls-7" cx="403.95" cy="2083.81" r="5.98"/><circle class="cls-7" cx="501.19" cy="1915.75" r="8.15"/><circle class="cls-7" cx="235.22" cy="2170.94" r="5.98"/><circle class="cls-7" cx="48.92" cy="2156.51" r="7.08"/><circle class="cls-7" cx="630.43" cy="2183.02" r="5.98"/><circle class="cls-7" cx="747.59" cy="2165.73" r="5.98"/><circle class="cls-7" cx="1028.91" cy="2256.7" r="7.86"/><circle class="cls-7" cx="867.73" cy="2103.53" r="5.4"/><circle class="cls-7" cx="1086.37" cy="1853.82" r="5.4"/><ellipse class="cls-7" cx="874.78" cy="1823.69" rx="5.33" ry="5.4"/><ellipse class="cls-7" cx="868.99" cy="1718.32" rx="5.33" ry="5.4"/><ellipse class="cls-7" cx="1213.11" cy="1995.7" rx="4.64" ry="4.7"/><ellipse class="cls-7" cx="1119.57" cy="1787.45" rx="4.64" ry="4.7"/><ellipse class="cls-7" cx="1104.76" cy="1958.68" rx="6.65" ry="6.73"/><circle class="cls-7" cx="1229.37" cy="2159.15" r="5.4"/><circle class="cls-7" cx="1245.77" cy="2056.1" r="6.74"/><circle class="cls-7" cx="1184.81" cy="883.59" r="5.75"/><circle class="cls-7" cx="1209.72" cy="501.57" r="5.75"/><circle class="cls-7" cx="1059.97" cy="753.9" r="6.86"/><circle class="cls-5" cx="914.15" cy="814.31" r="6.86"/><circle class="cls-5" cx="129.72" cy="434.19" r="6.86"/><circle class="cls-5" cx="115.03" cy="403.58" r="5.25"/><circle class="cls-5" cx="68.04" cy="350.97" r="5.25"/><circle class="cls-5" cx="1185.3" cy="1035.64" r="5.46"/><ellipse class="cls-5" cx="1136.79" cy="1632.08" rx="5.38" ry="5.46"/><ellipse class="cls-5" cx="1095.51" cy="1726.39" rx="8.22" ry="8.33"/><ellipse class="cls-5" cx="1126.13" cy="1723.48" rx="6.55" ry="6.64"/><ellipse class="cls-5" cx="1212.23" cy="1696.06" rx="6.55" ry="6.64"/><ellipse class="cls-5" cx="1226.27" cy="1690.86" rx="5.24" ry="5.31"/><circle class="cls-5" cx="196.28" cy="404.87" r="5.25"/><circle class="cls-5" cx="166.61" cy="452.93" r="5.25"/><circle class="cls-7" cx="1024.14" cy="796.75" r="5.25"/><circle class="cls-5" cx="1056.09" cy="692.94" r="5.25"/><circle class="cls-5" cx="250.21" cy="367.43" r="5.25"/><circle class="cls-5" cx="1049.71" cy="1473.47" r="5.46"/><ellipse class="cls-7" cx="1248.75" cy="1979.69" rx="4.33" ry="4.38"/><ellipse class="cls-7" cx="1304.48" cy="1959.82" rx="4.33" ry="4.38"/><ellipse class="cls-5" cx="1184.26" cy="1887.82" rx="4.33" ry="4.38"/><ellipse class="cls-5" cx="1171.02" cy="1849.33" rx="6.79" ry="6.89"/><ellipse class="cls-7" cx="1193.57" cy="1986.54" rx="8.73" ry="8.84"/><ellipse class="cls-5" cx="1259.29" cy="1855.95" rx="7.32" ry="7.42"/><ellipse class="cls-7" cx="1261.22" cy="1965.36" rx="7.32" ry="7.42"/><circle class="cls-7" cx="1291.96" cy="391.97" r="5.25"/><circle class="cls-7" cx="1184.17" cy="817.89" r="7.32"/><circle class="cls-7" cx="976.56" cy="1104.37" r="6.54"/><circle class="cls-7" cx="910.7" cy="1104.29" r="6.54"/><circle class="cls-5" cx="1138.12" cy="109.73" r="15.21"/><circle class="cls-5" cx="1025.18" cy="46.29" r="15.21"/><circle class="cls-5" cx="842.95" cy="74.15" r="15.21"/><polyline class="cls-8" points="22.8 37.24 175.71 28.72 311.29 104.76"/><polygon class="cls-8" points="285.57 520.26 313.3 477.16 428.87 563.32 285.57 520.26"/><polyline class="cls-9" points="433.12 565.43 560.38 736.84 446.03 851.66 534.16 996.06 763.86 956.04 1028.6 920.52 732.79 847.75 564.87 739.73"/><polyline class="cls-8" points="1059.33 1131.81 1028.6 920.52 1109.42 815.19 1154.64 786.46"/><circle class="cls-5" cx="1028.6" cy="920.52" r="25.1"/><polyline class="cls-8" points="842.95 74.15 1025.18 46.28 1138.12 109.73 1365.53 237.61"/><line class="cls-10" x1="1291.48" y1="548.49" x2="1211.31" y2="669.25"/><polyline class="cls-8" points="-4.41 1017.51 16.15 986.98 116.06 875.28 173.04 924.08 263.23 1008.21"/><polyline class="cls-8" points="401.22 1477.5 421.07 1558.26 467.68 1585.23 508.55 1579.58 556.63 1566.89 594.51 1502.99 568.08 1442.92"/><polyline class="cls-8" points="250.98 1801.17 188.29 1750.43 280.4 1715.83 355.1 1703.32 255.59 1796.65"/><polyline class="cls-8" points="-0.76 2136.84 32.28 2073.3 112.64 2050.62 249.44 1981.43 250.98 1801.17"/><polyline class="cls-8" points="1376.29 1605.76 1094.91 1727.46 1192.34 1986.9"/></g></g></svg>