<svg id="Layer_1" data-name="Layer 1" xmlns="http://www.w3.org/2000/svg" viewBox="0 0 1366 534">
  <defs>
    <style>
      .cls-1 {
        fill: none;
        stroke: #fff;
        stroke-miterlimit: 10;
        stroke-width: 0.75px;
      }
    </style>
  </defs>
  <g>
    <g>
      <path class="cls-1" d="M840.16,42.78c-23.79,1.14-48.63,7.94-63.4,45.15H749.14c-.54,8.69-4,16-11.37,21.34-35.55,21.83-43.18,39.69-36.54,58.55,4.72,12.93,17,15.84,28.95,14.88,19-3,26.55-32.75,2.85-39.69a16,16,0,0,0-4.49-.21c-13.36,1.32-19.62,19.66-3.88,26.4,5.62,1.69,11.23-2.81,11.8-8.43,0-3.37-2.19-5.89-6.28-6.85-2.2-.45-2.89-1.11-1.89-2,3.87-1.68,9.85.4,11.54,4.9,2.31,9.73-2.08,16.34-11.8,18-10.89.54-19.11-5.46-18.54-19.1,0-11.27,5.53-18.19,19.66-27.54,14.05-9.55,21.49-14.41,26.63-29.83h27.49c6.68-26.57,30.09-47.63,56.89-48.63,24.81,1,56.89,16.17,57.55,48.63h28.78c5.38,15.42,15,21.4,27.41,28.71,14.61,9.55,20.18,17.95,20.23,29.22.6,13.64-6.59,19.64-18,19.1-10.18-1.64-16.29-7.87-12.92-17.42,3.37-6.74,8-7.7,12-6,2,1,.32,2.09-1.93,2.65-4.27,1-6.18,2.81-6.18,6.74.56,6.75,5.06,10.12,11.24,8.43,18-6.74,8.78-29.73-8.09-26.75-24.81,6.94-16.87,36.71,3,39.69,12.47,1,22.84-1.95,27.78-14.88,6.95-18.86-4-37.71-35.72-58.55-7.76-5.36-11.34-12.65-11.91-21.34h-28.9c-16.83-41.63-39.49-44-64.38-45.15Z"/>
      <path class="cls-1" d="M728.54,142.8c17.84-10.91,31.22-22,36.2-33.53H795.5c4-19.85,18.86-46.65,45.57-45.91"/>
      <path class="cls-1" d="M954.77,142.8c-18-10.91-31.55-22-36.57-33.53H887.11c-4-19.85-19.05-46.65-46-45.91"/>
      <path class="cls-1" d="M840.65,472.33H698.25V429.8l6-6.95,2-13.89,2-2c-1.54-3.06-.9-5.19,3-6-.64-2.27.46-3.89,3-5V238.27c-1.59-.82-2-2.56-1.91-4.77-6.32-2.31-5.79-5.08-1.07-8.13,2.11-4.67.92-8.9-2-12.9-2.07-.07-3.24-2-4-5-7.09-4.73-6.27-9.17-2.17-13.49l.18-4.37q-1.44-5.51,8.93-6h35.73c1.49,1.35,1.71,3.4,1,6,.89,1,1.43,1.95,1,3,6.09,7,4.68,12-1,15.88-.49,1.43-1.36,2.26-3,2-2.9,0-2.83,8.29-3,16.87,4.18,1.67,3.94,4.31,0,5.95a3.42,3.42,0,0,1-1,4V396.06c2,1.13,2.08,3.24,1,5.95,1.6.6,2.3,2.21,2,5l2,2v12.9l6,7.94v31.75h87.82"/>
      <path class="cls-1" d="M840.65,472.33h142.9V429.8l-6-6.95-2-13.89-2-2c1.54-3.06.9-5.19-3-6,.64-2.27-.46-3.89-3-5V238.27c1.59-.82,2-2.56,1.91-4.77,6.34-2.31,2.92-5.3-.45-7-2.12-4.67.6-10,3.52-14,2.08-.07,3.26-2,4-5,7.11-4.73,6.29-9.17,2.17-13.49l-.18-4.37q1.45-5.51-9-6H933.76c-1.49,1.35-1.72,3.4-1,6-.9,1-.66,3.25-.22,4.27-6.1,7-4.57,10.18,1.13,14.05.48,1.43.45,2.79,2.07,2.52,2.92,0,2.85,8.29,3,16.87-4.2,1.67-4,4.31,0,5.95a3.39,3.39,0,0,0,1,4V396.06c-2,1.13-2.09,3.24-1,5.95-1.61.6-2.31,2.21-2,5l-2,2v12.9l-6,7.94v31.75H840.65"/>
      <path class="cls-1" d="M841.15,429.8a28.81,28.81,0,0,1,19.51-6c11.12.74,18.7-5.31,23.94-15.87h16C903.23,391.3,913,383.59,927,381.05V231.33c-11.13-5.06-18.69-12.7-21.45-23.82H888c-3.15-25.7-19.15-38.07-45.76-39.42h-1.14c-27.08,1.35-43.35,13.72-46.56,39.42H776.63c-2.81,11.12-10.5,18.76-21.82,23.82V381.05C769,383.59,779,391.3,781.61,408h16.33c5.33,10.56,13,16.61,24.35,15.87A34.29,34.29,0,0,1,841.15,429.8Z"/>
      <path class="cls-1" d="M841.15,424.84c5.29-4.08,12-6.69,18.43-6.1,10.81.71,18.18-5.12,23.27-15.29h15.61c2.51-16.06,12-23.48,25.6-25.93V233.3c-10.81-4.87-18.16-12.23-20.85-22.94H886.13c-3.06-24.75-18.61-36.67-44.48-38-26.33,1.3-42.15,13.22-45.27,38H779c-2.73,10.71-10.2,18.07-21.21,22.94V377.52c13.81,2.45,23.5,9.87,26.05,25.93h15.88c5.18,10.17,12.68,16,23.67,15.29,6.58-.59,12.47,1.53,17.85,5.6"/>
      <path class="cls-1" d="M841.15,417.89c5-3.9,11.43-6.42,17.58-5.85,10.3.68,17.32-4.9,22.17-14.63h14.87c2.39-15.36,11.47-22.46,24.39-24.8v-138c-10.3-4.66-17.3-11.7-19.86-22H884c-2.92-23.68-17.74-35.07-42.38-36.32-25.08,1.25-40.15,12.64-43.13,36.32H782c-2.6,10.25-9.73,17.29-20.21,22v138c13.15,2.34,22.39,9.44,24.82,24.8H801.7c4.94,9.73,12.09,15.31,22.56,14.63,6.26-.57,11.76,1.95,16.89,5.85"/>
    </g>
    <line class="cls-1" x1="703.21" y1="189.65" x2="748.86" y2="189.65"/>
    <line class="cls-1" x1="703.03" y1="194.02" x2="749.85" y2="192.62"/>
    <line class="cls-1" x1="705.2" y1="207.51" x2="750.22" y2="207.51"/>
    <line class="cls-1" x1="709.16" y1="212.47" x2="744.01" y2="212.47"/>
    <line class="cls-1" x1="711.15" y1="225.37" x2="742.91" y2="227.36"/>
    <line class="cls-1" x1="712.22" y1="233.5" x2="742.91" y2="233.31"/>
    <line class="cls-1" x1="714.13" y1="238.27" x2="741.91" y2="237.28"/>
    <line class="cls-1" x1="933.11" y1="189.43" x2="978.01" y2="189.09"/>
    <line class="cls-1" x1="932.55" y1="193.92" x2="978.01" y2="194.46"/>
    <line class="cls-1" x1="933.4" y1="207.6" x2="976.58" y2="207.51"/>
    <line class="cls-1" x1="936.49" y1="210.78" x2="972.6" y2="212.47"/>
    <line class="cls-1" x1="939.3" y1="227.07" x2="968.51" y2="226.51"/>
    <line class="cls-1" x1="938.74" y1="233.31" x2="969.64" y2="233.25"/>
    <line class="cls-1" x1="939.86" y1="237.19" x2="967.62" y2="238.27"/>
    <line class="cls-1" x1="713.42" y1="395.64" x2="741.91" y2="396.06"/>
    <line class="cls-1" x1="711.17" y1="401.26" x2="744.1" y2="402.11"/>
    <line class="cls-1" x1="708.08" y1="407.16" x2="745.73" y2="407.71"/>
    <line class="cls-1" x1="939.46" y1="395.37" x2="967.4" y2="395.91"/>
    <line class="cls-1" x1="939.33" y1="402.14" x2="971.32" y2="400.69"/>
    <line class="cls-1" x1="936.32" y1="407.76" x2="973.01" y2="406.88"/>
    <line class="cls-1" x1="-0.03" y1="429.8" x2="698.25" y2="429.8"/>
    <line class="cls-1" x1="982.42" y1="429.8" x2="1366.47" y2="429.8"/>
    <g>
      <path class="cls-1" d="M848.48,100a3.84,3.84,0,0,1-2.71-.78,7.87,7.87,0,0,1-1.56-1.11A4.73,4.73,0,0,1,843,95.45a13.57,13.57,0,0,1,0-2.92,20.5,20.5,0,0,0-4.09,3,.63.63,0,0,0-.2.23.62.62,0,0,0,.12.5,15.4,15.4,0,0,1,2.22,9"/>
      <path class="cls-1" d="M844.28,105a9,9,0,0,0-.33-3.49,10.73,10.73,0,0,0,2.68,1.41,2.28,2.28,0,0,1-1,2.24,5.59,5.59,0,0,1-3,1.28,4.28,4.28,0,0,1-3.09-.83,3.3,3.3,0,0,0-.19,3.11,11.69,11.69,0,0,0-3.94-2.72,6.5,6.5,0,0,1-2.05,3.71,1.28,1.28,0,0,1-.67.37.94.94,0,0,1-.86-.56,4,4,0,0,1-.26-1,4,4,0,0,0-1.93-2.59c-1-.58-2.3-.76-3.14-1.55a4.91,4.91,0,0,1-1.11-3.44"/>
      <path class="cls-1" d="M825.36,100.83a7.3,7.3,0,0,0-2.83,2.79,4.47,4.47,0,0,0-.28,3.79c.22.52.56,1.07.36,1.59a1.42,1.42,0,0,1-1.87.53,5.1,5.1,0,0,1-1.58-1.42,3.76,3.76,0,0,0-1.55-1.18,1.73,1.73,0,0,0-1.84.4c-.39.5-.32,1.25-.77,1.71a2.26,2.26,0,0,1-.64.41l-4.27,2a6.73,6.73,0,0,1,3.19.06,2,2,0,0,1,1.44,2.38c1.52-1.44,3.76-1.9,5.87-2.3.33-.07.77-.07.88.23a.53.53,0,0,1-.07.42c-.37.66-1.22,1.07-1.37,1.81-.22,1,1.11,2.05.67,3-.66-.06-1.15-.59-1.77-.82a4.24,4.24,0,0,0-2.84.37,3.31,3.31,0,0,1-2.83.07c-.37,1.55,1.38,3.25.52,4.61-.62,1-2.17,1-3.2,1.62a4.85,4.85,0,0,0-1.8,2.91"/>
      <path class="cls-1" d="M808.76,126.06a1.61,1.61,0,0,1,2,1.08c.1.42.18,1,.63,1a.69.69,0,0,0,.31-.15c.71-.52,1.3-1.19,2-1.75a3.88,3.88,0,0,1,2.43-1,9.8,9.8,0,0,0-1,2.39,3.17,3.17,0,0,0,.39,2.48.8.8,0,0,1,.18.34c.07.37-.42.58-.78.75a2.62,2.62,0,0,0-1.47,3,5.8,5.8,0,0,1,3.81-3.08c.91-.23,1.87-.25,2.76-.53,2.19-.69,3.49-2.76,4.59-4.66l2-3.49a7.31,7.31,0,0,0,1.15,2.95,3.32,3.32,0,0,0,2.84,1.41,11.12,11.12,0,0,1,.34-3.15,4,4,0,0,1,2-2.47"/>
      <path class="cls-1" d="M832.85,121.07A8.26,8.26,0,0,0,835,121a.8.8,0,0,0,.4-.17.69.69,0,0,0,.11-.58,7,7,0,0,1,1.24-5.25,22,22,0,0,0-3.88,3.31q-.57-2.83-1.31-5.63a21,21,0,0,0-4.83,3.62,11.28,11.28,0,0,1-5.24,3l-.64-2.43"/>
      <path class="cls-1" d="M848.37,99.82a44.42,44.42,0,0,1,1.24-5.09,11.29,11.29,0,0,1,4.78,1.4L859,98.26c-1.93.14-3.86.33-5.77.58a.63.63,0,0,0-.44.18.55.55,0,0,0-.07.38,6.67,6.67,0,0,1-1.27,3.78,28.33,28.33,0,0,1-2.64,3.16,100.34,100.34,0,0,0-6.31,8.09c.67,1,2.45.86,3.38,1.73a3.09,3.09,0,0,1,.56.78,29.76,29.76,0,0,1,2.7,6.28,15.07,15.07,0,0,1-5.77-1.79"/>
      <path class="cls-1" d="M843.33,121.45a33,33,0,0,1-1,4.38,3,3,0,0,1-1.05,1.77,2.38,2.38,0,0,1-2.6-.23,5,5,0,0,1-1.5-2.19,10.27,10.27,0,0,1-.82-3,2.66,2.66,0,0,1,.23-1.58,2.24,2.24,0,0,1,.8-.82,4,4,0,0,1,3.05-.55,3.74,3.74,0,0,1,2.44,1.82,8.36,8.36,0,0,1-2-3.18,2.79,2.79,0,0,1,1.28-3.22A12.52,12.52,0,0,1,837.1,116"/>
      <path class="cls-1" d="M846.78,109.89a3,3,0,0,0,2.93,1.45,9,9,0,0,0,3.33-1,9.79,9.79,0,0,0,3.39-2.16c.85-1,1.27-2.21,2.23-3.06,1.68,1.34,2.74,3.41,4.76,4.23a17.35,17.35,0,0,0,2.7.62,10.09,10.09,0,0,1,3.49,1.51,3.85,3.85,0,0,0,1.91.93l-4.31,3.5a4.3,4.3,0,0,0-1.15,1.22c-.54,1-.11,2.24,0,3.39a5.63,5.63,0,0,1-2.19,4.77,5,5,0,0,0-3.48-1.58,34.69,34.69,0,0,1-4-.38,1.78,1.78,0,0,0-.65-.07,1.72,1.72,0,0,0-.59.26,4,4,0,0,1-2.24.44,15.25,15.25,0,0,1,2.25-4.88,1.4,1.4,0,0,0,.31-.65,1.32,1.32,0,0,0-.09-.48L855,116.6a1.34,1.34,0,0,0-.34-.63,1.66,1.66,0,0,0-.48-.24q-4.42-1.58-8.79-3.26"/>
      <path class="cls-1" d="M869.05,116a6.26,6.26,0,0,1,3.49,3.7,22.62,22.62,0,0,0,.65,2.17c.79,1.76,2.76,2.76,4.64,3.48a41.79,41.79,0,0,0,6.42,1.87l-7,3.42a1.81,1.81,0,0,0-.75.54,1.55,1.55,0,0,0-.17.85,8.3,8.3,0,0,1-.13,2.23,2.3,2.3,0,0,1-1.44,1.66c-1.22.37-2.39-.57-3.36-1.35a6.27,6.27,0,0,0-4.46-1.69c-.75.09-1.46.41-2.22.53a2,2,0,0,1-2-.69,16.16,16.16,0,0,0,5.82-5.91,6.74,6.74,0,0,1-5.7-1.06"/>
      <path class="cls-1" d="M861.91,124.63c-1.23.67-2.61,1.58-2.61,2.91a3.92,3.92,0,0,0,.36,1.41,16,16,0,0,1,1,5.6.56.56,0,0,1-.1.38.63.63,0,0,1-.43.15,20.17,20.17,0,0,1-8.89-1.11,24.41,24.41,0,0,1-5.17,6c-1.54-1.58-2.47-3.58-3.75-5.35s-3.1-3.42-5.37-3.61"/>
      <path class="cls-1" d="M842.15,127.77l1.41,2.82-8.64-.62a51.52,51.52,0,0,1,6.14,7.88l-4-.24a1.82,1.82,0,0,0-1.25.24c-.65.54,0,1.55.62,2.08s1.49,1.24,1.19,2c-.17.44-.67.69-1.11.93a9,9,0,0,0-2.82,2.38,1.06,1.06,0,0,1-.58.46.9.9,0,0,1-.55-.13,7.19,7.19,0,0,1-2.61-2.67,2.27,2.27,0,0,1-.35-.65c-.25-.81.4-1.6.9-2.3s.82-1.78.12-2.31-1.91.12-2.91.12-2.34-.9-3.23-.26l2.9-3.73a6,6,0,0,1,1-1.06,12.13,12.13,0,0,0,1.35-1,1,1,0,0,0,.14-1.44,1.35,1.35,0,0,0-.95-.26,16.45,16.45,0,0,0-3.15.7,3.12,3.12,0,0,1-3-.64"/>
      <path class="cls-1" d="M812.69,121.53a5.1,5.1,0,0,1-2.89-.9c-.58,1.05-.18,2.64-1.26,3.23a2.5,2.5,0,0,1-1.25.2,17.31,17.31,0,0,1-6.59-1.49c-.69,1.83-1.38,3.88-.59,5.68a2.16,2.16,0,0,1,.29.9c0,.91-1.44,1.12-2.32.74s-1.7-1.06-2.66-1a2.85,2.85,0,0,0-2,1.73,5.72,5.72,0,0,1-1.55,2.24c.69.09,1,.86,1.2,1.49s.72,1.37,1.41,1.21a1.84,1.84,0,0,0,.67-.4,5.52,5.52,0,0,1,2.44-1.12.53.53,0,0,1,.39,0c.17.11.16.35.12.55a10.22,10.22,0,0,0-.39,3,2.62,2.62,0,0,0,1.78,2.32,6,6,0,0,1,3.24-2.35c1.06-.32,2.21-.35,3.27-.7a5.44,5.44,0,0,0,2.93-2.28c.23-.37.55-.84,1-.74a.75.75,0,0,1,.48.41c.7,1.2,0,2.72.35,4a1.2,1.2,0,0,0,.31.6c.84.79,2.23-.58,3.39-.32.61.14,1,.71,1.62.86a1.69,1.69,0,0,0,1.77-.88,4.32,4.32,0,0,0,.41-2,.72.72,0,0,0-.07-.41c-.22-.31-.72-.13-1.08,0a2.59,2.59,0,0,1-3.37-2.22"/>
      <path class="cls-1" d="M818.54,132a1.73,1.73,0,0,1,.55,2.12,4.12,4.12,0,0,1-1.67,1.72"/>
      <path class="cls-1" d="M798.46,140.75a8.3,8.3,0,0,1-4.41-.56,1.47,1.47,0,0,0-.81-.19,1.11,1.11,0,0,0-.48.25c-.9.71-1.41,1.78-2.27,2.54a4.6,4.6,0,0,1-3.41,1.1,35.33,35.33,0,0,0,4.14,3,3.88,3.88,0,0,1,1.08.78,1,1,0,0,1,.18,1.19c-.38.61-1.52.63-1.66,1.32s1,1.11,1.29,1.82-.68,1.58-.75,2.45l2.77-1.16a3.28,3.28,0,0,0,1-.57,4,4,0,0,0,.81-2.26c.17-.79.71-1.68,1.57-1.66a1.68,1.68,0,0,1,1.38,1.17,17.17,17.17,0,0,0,.56,1.76c.39.76,1.19,1.39,1.16,2.23a10.58,10.58,0,0,1,1.68-2.79c.47-.5,1-.93,1.49-1.46a2.18,2.18,0,0,0,.58-1.87c-.19-.72-.9-1.2-1.28-1.84a1.73,1.73,0,0,1,.31-2.23c.68-.52,1.92-.21,2.06.59.07.34-.06.71.07,1a1.23,1.23,0,0,0,1.16.58c.47,0,.93-.12,1.39-.09a1.9,1.9,0,0,1,1.73,2,6.79,6.79,0,0,1,2.17-2.9,11.06,11.06,0,0,0,2.49-2.72,2.9,2.9,0,0,0-.24-3.37"/>
      <path class="cls-1" d="M818.46,138.54a3.9,3.9,0,0,1,3.51,1.63,15.36,15.36,0,0,1,1,2.47,6.51,6.51,0,0,0,1.2,1.83,5.86,5.86,0,0,1,.74.84,3.91,3.91,0,0,1,.2,2.92,13.94,13.94,0,0,1-4.8-.66,3.54,3.54,0,0,0-1.59-.29c-.54.08-1,.59-.87,1.08a1.39,1.39,0,0,0,.31.42,9.51,9.51,0,0,0,2.45,1.75c.8.4,1.66.69,2.42,1.15a6.17,6.17,0,0,1,2.8,4.28l-3.6-1.08a4.4,4.4,0,0,0-2-.28c-.66.11-1.31.63-1.28,1.26a1.66,1.66,0,0,0,1,1.21,8,8,0,0,1,1.44.79,1.12,1.12,0,0,1,.4,1.39,1.54,1.54,0,0,1-.35.37,3.7,3.7,0,0,1-2,1,6.76,6.76,0,0,1-2-.43c-.94-.24-1.94-.21-2.88-.43a2.61,2.61,0,0,1-2.12-1.67c-.16-.68.15-1.42-.13-2.06-.38-.88-1.6-1.07-2.61-1.13l-5.79-.33a8.71,8.71,0,0,1,3.44-3.45,28,28,0,0,1,4.61-2.05,3.93,3.93,0,0,0,1.59-.88c.15-.17.27-.41.16-.6a.75.75,0,0,0-.43-.25,7.68,7.68,0,0,0-4.38.19c-1.67.58-3.13,1.75-4.91,1.95"/>
      <path class="cls-1" d="M790.44,149.82a3.35,3.35,0,0,0-2.74.69.32.32,0,0,0-.14.22.35.35,0,0,0,.15.23,13.18,13.18,0,0,0,2.6,1.69c.76.37,1.66.8,1.78,1.6s-.64,1.45-1.45,1.64a8.19,8.19,0,0,1-2.47,0,10.56,10.56,0,0,0-5.4,1.06,4.68,4.68,0,0,0-2.41,2.24l4.33,1.92c.44.19.93.46,1,.91,0,.61-.76.92-1.4,1s-1.42,0-1.75.56a1.22,1.22,0,0,0,.15,1.3,11.13,11.13,0,0,1,.8,1.14,1.88,1.88,0,0,1-.88,2.43,1,1,0,0,0-.28.17c-.25.28.08.68.4.87a2.93,2.93,0,0,0,3,.22,2.59,2.59,0,0,0,1-1.68c.13-.65.12-1.32.22-2s.32-1.09.86-1.19a1.14,1.14,0,0,1,1.05.49,9.5,9.5,0,0,1,.55,1,3.27,3.27,0,0,0,2.11,1.57c.44-1.6,1-3.36,2.48-4.25a4.58,4.58,0,0,0,1.48-1,2.07,2.07,0,0,0,0-1.95,6.73,6.73,0,0,1-.66-1.92,1.4,1.4,0,0,1,1.09-1.52c.9-.09,1.45.86,2.12,1.42,1.28,1.07,3.23.77,4.93.6a.77.77,0,0,1,.5.08.67.67,0,0,1,.17.52,3.31,3.31,0,0,0,2.28,3.07,41,41,0,0,1,.27-8.14"/>
      <path class="cls-1" d="M794.54,163.8c.62,0,1.38.36,1.33.94a1.15,1.15,0,0,1-.62.8,4.7,4.7,0,0,1-2.43.72.49.49,0,0,0-.27.06.4.4,0,0,0-.14.27,15.07,15.07,0,0,0-.12,5.6c.09.54.42,1.21,1,1.12a1.19,1.19,0,0,0,.56-.35l2.44-2.26a.51.51,0,0,1,.31-.17c.19,0,.31.19.38.36.47,1.32.12,2.75.14,4.14a.93.93,0,0,0,.17.63c.33.41,1,.19,1.56.22,1,.05,1.66,1,2.14,1.83l1.1,1.91a2.5,2.5,0,0,1,1.07-1.6,1.61,1.61,0,0,0,.52-.4,1.12,1.12,0,0,0,0-1c-.73-2.34-3-4.16-3.25-6.6a.69.69,0,0,1,.13-.56c.25-.25.69-.1,1,.06,1.64.85,3.39,1.86,5.24,1.63a9.84,9.84,0,0,0-3.29-5.71,8.28,8.28,0,0,1-1.33-1.24c-1-1.37-.6-3.23-.78-4.9"/>
      <path class="cls-1" d="M782.89,171.22a1.19,1.19,0,0,0,.17,1.66,2.93,2.93,0,0,0,1.79.64c.5,0,1.19.21,1.13.68a.71.71,0,0,1-.19.35c-.8.82-2.22.53-3.38.74a.68.68,0,0,0-.39.16.65.65,0,0,0-.14.43,2.9,2.9,0,0,0,.79,2c.47.5,1.14.88,1.38,1.51a3,3,0,0,1-.59,2.34.4.4,0,0,0-.08.33.43.43,0,0,0,.32.24,4.76,4.76,0,0,0,3.82-.34,1.68,1.68,0,0,0,.72-.65,2.08,2.08,0,0,0,.17-.82l.24-4.3a36.13,36.13,0,0,1,4.3,2.64,20.61,20.61,0,0,0,2.15-8.15"/>
      <path class="cls-1" d="M850,136.81a8.16,8.16,0,0,1,2.64,2.72,16.88,16.88,0,0,0,1.08,2.63,8.66,8.66,0,0,0,2,1.65,8.08,8.08,0,0,1,3,8,10.39,10.39,0,0,1,4.27-3.5c2-.69,4.21-.23,6.27.23l.13-4.56"/>
      <path class="cls-1" d="M865.65,133.57a3.67,3.67,0,0,1-1.48,3.23,8.48,8.48,0,0,0,2.66,2,4.31,4.31,0,0,1,1.4.85,2.74,2.74,0,0,1,.59,1.28c.35,1.4-.82,2.68-1,4.11,1.21-1.06,3.71-1.95,4.93-3a3.85,3.85,0,0,1,1.58-1c1-.22,2,.34,2.93.68a7,7,0,0,0,5.44-.36.9.9,0,0,0,.41-.33.88.88,0,0,0-.12-.79L881.42,137a.6.6,0,0,1,.12-.85l2.79-3.07a9.21,9.21,0,0,1-6-3"/>
      <path class="cls-1" d="M883.76,141.21a8.38,8.38,0,0,0,2.87-.22,12.43,12.43,0,0,0,2.07-1,11.56,11.56,0,0,1,3.15-1.1L891.6,143a2.24,2.24,0,0,0,.1,1,2.12,2.12,0,0,0,.58.69,27.72,27.72,0,0,0,5.72,4,12.65,12.65,0,0,0-5,2.11,4,4,0,0,0-.95.87,5.82,5.82,0,0,0-.66,1.66,9,9,0,0,1-2.53,3.88,8.48,8.48,0,0,0-3.2-3.93,26.47,26.47,0,0,0-4.64-2.49,8.7,8.7,0,0,1,2.06-1.37c.91-.43,2-.87,2.2-1.82s-.63-1.58-1.41-2a6.72,6.72,0,0,1-2.25-1.41,13.08,13.08,0,0,1-1-2.22"/>
      <path class="cls-1" d="M881.86,150c-1-1.3-1.25-3.71-2.2-5.06-.77-1.11-3.17-2.76-3.8-3.94"/>
      <path class="cls-1" d="M873.86,141c.34,1.17,1.34,4.48,1.34,4.48.66,1.52,1.93,2.39,1.74,3.83a1.78,1.78,0,0,1-.54,1.17,2.2,2.2,0,0,1-2.12.16,8.12,8.12,0,0,0-2.11-.68.4.4,0,0,0-.32.08.38.38,0,0,0-.08.23c-.09,1.29.61,2.58.36,3.86a5,5,0,0,1-1,1.88,27.75,27.75,0,0,1-3.46,3.9,18.46,18.46,0,0,0,6.15.56,1.29,1.29,0,0,1,.73.08,1.12,1.12,0,0,1,.4.41,22.14,22.14,0,0,0,3.86,4.18,12.28,12.28,0,0,1,3.43-4.44,7,7,0,0,1,5.49-1.42L888,156"/>
      <path class="cls-1" d="M887.09,161.11a2.19,2.19,0,0,0,.12,1.8c.26.56.65,1.07,1,1.61a6,6,0,0,1,.37,5,10.89,10.89,0,0,1,5.83-1.24,32.62,32.62,0,0,1,6,1l-2.23-4.74a4.25,4.25,0,0,1-.56-1.94c.06-1.27,1.26-2.32,1.27-3.59l-2.89.23a14.74,14.74,0,0,1-4.09,0,4.87,4.87,0,0,1-3.33-2.05"/>
      <path class="cls-1" d="M887.93,169.2l-2.1-1.37a.35.35,0,0,0-.23-.09.35.35,0,0,0-.19.15c-1.26,1.53-2.58,3.29-4.59,3.68a31.41,31.41,0,0,1,3.24,4.16,10,10,0,0,1,1.61,4.89,21.55,21.55,0,0,1,3.58-4.35,2.63,2.63,0,0,1,.8-.56,3.44,3.44,0,0,1,1.32-.07,8.9,8.9,0,0,0,2.57-.23c-1-2.47-1.93-3.76-2.08-6.38"/>
      <path class="cls-1" d="M899.1,170l-.57,2.39a1.47,1.47,0,0,0,0,.75,1.62,1.62,0,0,0,.47.61,7,7,0,0,1,1.81,3l-3.85-.3a2.62,2.62,0,0,0-.74,0,2.41,2.41,0,0,0-.81.38l-2.62,1.65a18.62,18.62,0,0,1-2.9-2.92"/>
    </g>
  </g>
</svg>
