<svg xmlns="http://www.w3.org/2000/svg" xmlns:xlink="http://www.w3.org/1999/xlink" viewBox="0 0 2004.27 3203.44"><defs><style>.cls-1,.cls-7,.cls-8{fill:none;}.cls-2{opacity:0.6;}.cls-3{clip-path:url(#clip-path);}.cls-4,.cls-5,.cls-6{fill:#fff;}.cls-5,.cls-8{opacity:0.85;isolation:isolate;}.cls-6,.cls-7,.cls-8{stroke:#fff;stroke-miterlimit:10;}.cls-7,.cls-8{stroke-width:4px;}</style><clipPath id="clip-path" transform="translate(55.83 -6.07)"><rect class="cls-1" width="1941.98" height="3322.45"/></clipPath></defs><g id="Layer_2" data-name="Layer 2"><g id="Layer_1-2" data-name="Layer 1"><g class="cls-2"><g class="cls-3"><circle class="cls-4" cx="89.09" cy="52.61" r="10.76"/><circle class="cls-4" cx="14.63" cy="756.94" r="8.45"/><circle class="cls-4" cx="53.59" cy="791.89" r="8.45"/><circle class="cls-4" cx="132.5" cy="835.28" r="8.45"/><circle class="cls-4" cx="141.64" cy="1069.81" r="8.45"/><circle class="cls-4" cx="122" cy="1259.03" r="9.93"/><circle class="cls-4" cx="353.93" cy="1263.43" r="9.93"/><circle class="cls-4" cx="89.53" cy="1208.89" r="9.93"/><circle class="cls-4" cx="315.51" cy="672.34" r="8.45"/><circle class="cls-4" cx="160.34" cy="140.6" r="8.45"/><circle class="cls-4" cx="222.58" cy="231.13" r="8.45"/><circle class="cls-4" cx="331.78" cy="966.53" r="8.14"/><circle class="cls-4" cx="354.19" cy="872.74" r="8.14"/><circle class="cls-4" cx="1471.19" cy="8.45" r="8.45"/><circle class="cls-5" cx="68.78" cy="389.47" r="8.14"/><circle class="cls-5" cx="1458.94" cy="1339.06" r="8.45"/><circle class="cls-5" cx="1584.8" cy="397.85" r="8.45"/><circle class="cls-4" cx="1664.22" cy="1050.1" r="8.45"/><circle class="cls-4" cx="1883.52" cy="775.72" r="10.76"/><circle class="cls-4" cx="1825.33" cy="955.18" r="8.45"/><circle class="cls-4" cx="1835.02" cy="879.38" r="8.45"/><circle class="cls-4" cx="1773.02" cy="941.47" r="16.9"/><circle class="cls-4" cx="1062.42" cy="249.41" r="10.76"/><circle class="cls-5" cx="1300.6" cy="175.74" r="10.76"/><circle class="cls-4" cx="1394.5" cy="231.1" r="10.76"/><circle class="cls-4" cx="1646.19" cy="116.5" r="10.76"/><circle class="cls-4" cx="1610.76" cy="199.71" r="6.91"/><circle class="cls-4" cx="1823.9" cy="167.29" r="6.91"/><circle class="cls-4" cx="1789.31" cy="261.12" r="6.91"/><circle class="cls-4" cx="1784.12" cy="374.34" r="6.91"/><circle class="cls-4" cx="1766.12" cy="349.62" r="6.91"/><circle class="cls-4" cx="1711.53" cy="403.71" r="11.52"/><circle class="cls-4" cx="408.24" cy="1034.51" r="8.45"/><circle class="cls-4" cx="552.27" cy="1235.87" r="9.93"/><circle class="cls-4" cx="384.23" cy="961.82" r="8.45"/><circle class="cls-4" cx="290.35" cy="850.12" r="11.52"/><circle class="cls-4" cx="154.57" cy="364.97" r="11.52"/><circle class="cls-4" cx="46.75" cy="910.73" r="11.52"/><circle class="cls-4" cx="496.53" cy="148.37" r="11.52"/><circle class="cls-4" cx="-44.31" cy="1065.94" r="11.52" transform="translate(-1054.13 1009.14) rotate(-89.65)"/><circle class="cls-4" cx="221" cy="1237.94" r="13.53"/><circle class="cls-4" cx="82.48" cy="1395.54" r="13.53"/><circle class="cls-4" cx="301.59" cy="1306.95" r="13.53"/><circle class="cls-4" cx="429.16" cy="1425.95" r="13.53"/><circle class="cls-4" cx="594.54" cy="1050.81" r="9.93"/><circle class="cls-4" cx="997.33" cy="2018.52" r="9.93"/><circle class="cls-4" cx="266.12" cy="1419.34" r="9.93"/><circle class="cls-4" cx="98.96" cy="1423.19" r="8.45"/><circle class="cls-4" cx="46.87" cy="1506.4" r="8.45"/><circle class="cls-4" cx="329.43" cy="2233.48" r="8.45"/><circle class="cls-4" cx="291.94" cy="1694.3" r="8.45"/><circle class="cls-4" cx="508.98" cy="2234.19" r="8.45"/><circle class="cls-4" cx="422.21" cy="2141.54" r="8.45"/><circle class="cls-4" cx="488.09" cy="2135.53" r="8.45"/><circle class="cls-4" cx="292.61" cy="1906.32" r="11.52"/><circle class="cls-5" cx="896.94" cy="728.28" r="12.95"/><circle class="cls-4" cx="860.35" cy="2040.81" r="11.52"/><circle class="cls-4" cx="771.47" cy="759.73" r="9.01"/><circle class="cls-4" cx="833.23" cy="1890.41" r="8.01"/><circle class="cls-4" cx="804.89" cy="660.97" r="9.01"/><circle class="cls-5" cx="907.59" cy="634.57" r="9.01"/><circle class="cls-5" cx="624.16" cy="1066.28" r="9.01"/><circle class="cls-5" cx="835.55" cy="580.02" r="9.01"/><circle class="cls-4" cx="782.46" cy="599.56" r="9.01"/><circle class="cls-4" cx="495.96" cy="1787.85" r="8.45"/><circle class="cls-4" cx="548.7" cy="2091.48" r="8.45"/><circle class="cls-4" cx="588" cy="1672.42" r="24.46"/><circle class="cls-4" cx="613.81" cy="2263.14" r="8.45"/><circle class="cls-4" cx="770.57" cy="1997.37" r="8.45"/><circle class="cls-4" cx="952.55" cy="1557.72" r="8.14"/><circle class="cls-4" cx="860.35" cy="1432.61" r="8.14"/><circle class="cls-4" cx="816.66" cy="1295.44" r="8.14"/><circle class="cls-5" cx="808.08" cy="1172.07" r="8.14"/><circle class="cls-5" cx="892.46" cy="1087.38" r="8.14"/><circle class="cls-4" cx="1102.37" cy="1229.13" r="8.14"/><circle class="cls-4" cx="1068.28" cy="1350.01" r="8.14"/><circle class="cls-4" cx="832.86" cy="1747.14" r="8.45"/><circle class="cls-4" cx="910.55" cy="691.12" r="9.5"/><circle class="cls-4" cx="934.02" cy="1495.83" r="8.14"/><circle class="cls-4" cx="1046.9" cy="1522.71" r="8.14"/><circle class="cls-4" cx="1236.45" cy="1580.83" r="8.14"/><circle class="cls-4" cx="1278.32" cy="1523.28" r="8.14"/><circle class="cls-4" cx="1087.81" cy="1446.91" r="6.78"/><circle class="cls-4" cx="1204.16" cy="1453.25" r="8.14"/><circle class="cls-4" cx="1046.39" cy="1482.76" r="11.21"/><circle class="cls-4" cx="897.72" cy="2125.77" r="11.65"/><circle class="cls-4" cx="627.75" cy="2091.73" r="11.65"/><circle class="cls-4" cx="718.34" cy="2242.09" r="11.65"/><circle class="cls-4" cx="186.16" cy="2325.18" r="11.65"/><circle class="cls-6" cx="453.45" cy="2426.82" r="13.8"/><circle class="cls-6" cx="323.17" cy="2475.75" r="13.8"/><circle class="cls-6" cx="411.83" cy="2547.53" r="13.8"/><circle class="cls-6" cx="409.65" cy="2802.49" r="13.8"/><circle class="cls-6" cx="102.5" cy="2932.42" r="13.8"/><circle class="cls-6" cx="216.17" cy="2900.35" r="21.62"/><circle class="cls-6" cx="216.75" cy="2748.66" r="13.8"/><circle class="cls-6" cx="164.08" cy="3053.91" r="9.34"/><circle class="cls-6" cx="559.11" cy="2409.12" r="13.8"/><circle class="cls-4" cx="849.73" cy="2317.62" r="11.58"/><circle class="cls-4" cx="196.57" cy="2428.43" r="8.29" transform="translate(-78.16 8.52) rotate(-3.17)"/><circle class="cls-6" cx="334.28" cy="2367.24" r="9.83"/><circle class="cls-6" cx="185.48" cy="2930.31" r="7.24"/><circle class="cls-6" cx="459.33" cy="2575.39" r="9.83" transform="translate(-85.89 23.27) rotate(-3.17)"/><circle class="cls-6" cx="610.1" cy="2602.83" r="9.83"/><circle class="cls-6" cx="1371.63" cy="1678.51" r="7.98"/><circle class="cls-4" cx="105.65" cy="2292.17" r="8.29"/><circle class="cls-4" cx="1252.88" cy="2128.49" r="7.57"/><circle class="cls-4" cx="773.14" cy="2234.52" r="11.65"/><circle class="cls-4" cx="844.15" cy="2216.15" r="18.83"/><circle class="cls-4" cx="647.15" cy="2204.68" r="14.37"/><circle class="cls-4" cx="263.75" cy="931.93" r="8.45"/><circle class="cls-4" cx="305.37" cy="40.55" r="13.06"/><circle class="cls-4" cx="460.76" cy="735.79" r="12.57"/><circle class="cls-4" cx="499.98" cy="674.83" r="12.57"/><circle class="cls-4" cx="669.45" cy="799.68" r="12.57"/><circle class="cls-4" cx="687.07" cy="1205.88" r="12.57"/><circle class="cls-4" cx="849.45" cy="1042.13" r="15.53"/><circle class="cls-4" cx="812.36" cy="1408.77" r="15.53"/><circle class="cls-4" cx="1093.31" cy="1199" r="15.53"/><circle class="cls-4" cx="1137.26" cy="1352.16" r="15.53"/><circle class="cls-6" cx="1626.02" cy="1152.95" r="15.53"/><circle class="cls-6" cx="1689.98" cy="1112.3" r="11.83"/><circle class="cls-6" cx="1555.17" cy="1600.78" r="11.83"/><circle class="cls-6" cx="1478.09" cy="1542.17" r="9.25"/><circle class="cls-6" cx="1459.83" cy="1379.15" r="9.25"/><circle class="cls-6" cx="1580.98" cy="1384.97" r="9.25"/><circle class="cls-6" cx="1623.98" cy="1385.8" r="8.14"/><circle class="cls-6" cx="1431.61" cy="1485.23" r="8.14"/><circle class="cls-4" cx="1337.69" cy="1363.25" r="8.14"/><circle class="cls-6" cx="1236.7" cy="1711.65" r="8.14"/><circle class="cls-6" cx="1129.52" cy="2754.77" r="8.45"/><circle class="cls-6" cx="792.65" cy="2902.11" r="8.45"/><circle class="cls-6" cx="628.19" cy="2947.29" r="8.45"/><circle class="cls-6" cx="765.73" cy="2709.58" r="11.52"/><circle class="cls-6" cx="389.54" cy="3070.53" r="8.45"/><circle class="cls-6" cx="126.04" cy="3050.11" r="10.02"/><circle class="cls-6" cx="948.53" cy="3087.62" r="8.45"/><circle class="cls-6" cx="1114.24" cy="3063.16" r="8.45"/><circle class="cls-6" cx="1512.14" cy="3191.82" r="11.12"/><circle class="cls-6" cx="1284.17" cy="2975.18" r="7.64"/><circle class="cls-6" cx="1593.42" cy="2622" r="7.64"/><ellipse class="cls-6" cx="1294.14" cy="2579.38" rx="7.54" ry="7.64"/><ellipse class="cls-6" cx="1285.95" cy="2430.34" rx="7.54" ry="7.64"/><ellipse class="cls-6" cx="1772.69" cy="2822.66" rx="6.56" ry="6.65"/><ellipse class="cls-6" cx="1640.38" cy="2528.12" rx="6.56" ry="6.65"/><ellipse class="cls-6" cx="1619.42" cy="2770.31" rx="9.4" ry="9.53"/><circle class="cls-6" cx="1795.68" cy="3053.86" r="7.64"/><circle class="cls-6" cx="1818.88" cy="2908.09" r="9.54"/><circle class="cls-6" cx="1732.65" cy="1249.69" r="8.14"/><circle class="cls-6" cx="1767.88" cy="709.36" r="8.14"/><circle class="cls-6" cx="1556.07" cy="1066.25" r="9.7"/><circle class="cls-4" cx="1349.83" cy="1151.7" r="9.7"/><circle class="cls-4" cx="240.32" cy="614.06" r="9.7"/><circle class="cls-4" cx="219.54" cy="570.76" r="7.43"/><circle class="cls-4" cx="153.08" cy="496.35" r="7.43"/><circle class="cls-4" cx="1733.34" cy="1464.75" r="7.72"/><ellipse class="cls-4" cx="1664.74" cy="2308.35" rx="7.62" ry="7.72"/><ellipse class="cls-4" cx="1606.34" cy="2441.76" rx="11.63" ry="11.78"/><ellipse class="cls-4" cx="1649.66" cy="2437.63" rx="9.27" ry="9.39"/><ellipse class="cls-4" cx="1771.43" cy="2398.86" rx="9.27" ry="9.39"/><ellipse class="cls-4" cx="1791.29" cy="2391.5" rx="7.42" ry="7.52"/><circle class="cls-4" cx="334.47" cy="572.58" r="7.43"/><circle class="cls-4" cx="292.49" cy="640.56" r="7.43"/><circle class="cls-6" cx="1505.39" cy="1126.86" r="7.43"/><circle class="cls-4" cx="1550.59" cy="980.03" r="7.43"/><circle class="cls-4" cx="410.75" cy="519.63" r="7.43"/><circle class="cls-4" cx="1541.57" cy="2084.02" r="7.72"/><ellipse class="cls-6" cx="1823.08" cy="2800.02" rx="6.12" ry="6.2"/><ellipse class="cls-6" cx="1901.92" cy="2771.92" rx="6.12" ry="6.2"/><ellipse class="cls-4" cx="1731.88" cy="2670.08" rx="6.12" ry="6.2"/><ellipse class="cls-4" cx="1713.15" cy="2615.64" rx="9.61" ry="9.74"/><ellipse class="cls-6" cx="1745.03" cy="2809.71" rx="12.34" ry="12.51"/><ellipse class="cls-4" cx="1837.99" cy="2625" rx="10.36" ry="10.5"/><ellipse class="cls-6" cx="1840.73" cy="2779.75" rx="10.36" ry="10.5"/><circle class="cls-6" cx="1884.21" cy="554.34" r="7.43"/><circle class="cls-6" cx="1731.74" cy="1156.76" r="10.36"/><circle class="cls-6" cx="1438.09" cy="1561.96" r="9.25"/><circle class="cls-6" cx="1344.94" cy="1561.84" r="9.25"/><circle class="cls-4" cx="1666.61" cy="155.14" r="21.51"/><circle class="cls-4" cx="1506.87" cy="65.4" r="21.51"/><circle class="cls-4" cx="1249.12" cy="104.81" r="21.51"/><polyline class="cls-7" points="89.09 52.61 305.37 40.55 497.13 148.1"/><polygon class="cls-7" points="460.76 735.79 499.98 674.83 663.45 796.7 460.76 735.79"/><polyline class="cls-8" points="669.45 799.68 849.45 1042.13 687.72 1204.53 812.36 1408.77 1137.26 1352.16 1511.71 1301.93 1093.31 1199 855.81 1046.21"/><polyline class="cls-7" points="1555.17 1600.78 1511.71 1301.93 1626.02 1152.94 1689.98 1112.3"/><circle class="cls-4" cx="1511.71" cy="1301.93" r="35.5"/><polyline class="cls-7" points="1249.12 104.81 1506.87 65.4 1666.61 155.14 1988.26 336.01"/><line class="cls-7" x1="1883.52" y1="775.72" x2="1770.13" y2="946.52"/><polyline class="cls-7" points="50.6 1439.11 79.69 1395.92 221 1237.94 301.59 1306.95 429.16 1425.95"/><polyline class="cls-7" points="624.33 2089.72 652.41 2203.95 718.34 2242.09 776.15 2234.1 844.15 2216.15 897.72 2125.77 860.35 2040.81"/><polyline class="cls-7" points="411.83 2547.53 323.17 2475.75 453.45 2426.82 559.11 2409.12 418.35 2541.14"/><polyline class="cls-7" points="55.77 3022.29 102.5 2932.42 216.17 2900.35 409.65 2802.49 411.83 2547.53"/><polyline class="cls-7" points="2003.48 2271.13 1605.49 2443.26 1743.31 2810.22"/></g></g></g></g></svg>